<mxfile host="app.diagrams.net" modified="2020-09-20T13:54:47.682Z" agent="5.0 (X11; Linux x86_64) AppleWebKit/537.36 (KHTML, like Gecko) Chrome/85.0.4183.83 Safari/537.36" etag="WfisxbVB_xT_dVpEthHH" version="13.7.3" type="github">
  <diagram id="R2lEEEUBdFMjLlhIrx00" name="Page-1">
    <mxGraphModel dx="1280" dy="773" grid="1" gridSize="10" guides="1" tooltips="1" connect="1" arrows="1" fold="1" page="1" pageScale="1" pageWidth="850" pageHeight="1100" math="0" shadow="0" extFonts="Permanent Marker^https://fonts.googleapis.com/css?family=Permanent+Marker">
      <root>
        <mxCell id="0" />
        <mxCell id="1" parent="0" />
        <mxCell id="gfYy91exCEIch9DOiOkr-1" value="&lt;div&gt;usuario tem nome, id, cpf, etc&lt;/div&gt;&lt;div&gt;usuario pode ser admin, moderador&lt;/div&gt;&lt;div&gt;aulas tem categoria,serie.tema, video, titescrição, comentarios, drive&lt;/div&gt;&lt;div&gt;comentario tem estrela, like/dislike, comentario-resposta&lt;/div&gt;&lt;div&gt;series tem aulas, tema, titescrição&lt;/div&gt;&lt;div&gt;curso tem series, usr.aluno, usr.professor, usr.monitor&lt;/div&gt;&lt;div&gt;&lt;br&gt;&lt;/div&gt;" style="text;html=1;strokeColor=none;fillColor=none;align=center;verticalAlign=middle;whiteSpace=wrap;rounded=0;" vertex="1" parent="1">
          <mxGeometry x="40" y="390" width="510" height="190" as="geometry" />
        </mxCell>
      </root>
    </mxGraphModel>
  </diagram>
</mxfile>
